<svg width="82" height="82" viewBox="0 0 82 82" fill="none" xmlns="http://www.w3.org/2000/svg">
<path d="M53.8091 0C38.2301 0 25.6234 4.51056 25.6234 10.2513V20.5026C10.2494 21.0151 0 25.3207 0 30.7538V61.5077C0 67.0946 12.6067 71.759 28.1857 71.759H28.5291C32.2804 71.759 35.9599 71.4771 39.5625 70.9389C43.1396 77.6278 50.2936 82 58.4726 82C63.3877 81.9997 68.1669 80.3865 72.0771 77.4079C75.9873 74.4293 78.8125 70.2499 80.1192 65.5108C81.1903 64.4908 81.8821 63.2453 82 61.8357V10.2513C82 4.51056 69.3933 0 53.8143 0H53.8091ZM28.1857 25.6282C40.9974 25.6282 51.2468 27.9347 51.2468 30.7538C51.2468 33.5729 40.9974 35.8795 28.1857 35.8795C15.374 35.8795 5.12468 33.5729 5.12468 30.7538C5.12468 27.9347 15.374 25.6282 28.1857 25.6282ZM28.1857 66.6333C14.2979 66.6333 6.40585 62.9941 5.12468 61.5077V57.4072C12.4479 60.4814 20.3653 61.8806 28.2985 61.5026C30.9018 61.4974 33.5769 61.3488 36.211 61.0669C35.9906 62.9685 36.3237 64.7163 36.8413 66.3822C34.525 66.4898 31.8858 66.6436 29.2158 66.6436L28.1345 66.6333H28.1857ZM36.2315 55.9207C33.8383 56.2129 31.0658 56.382 28.2575 56.382H28.1857C14.303 56.382 6.41097 52.7428 5.1298 51.2564V46.9509C12.4305 50.0932 20.341 51.5642 28.2831 51.2564C31.5345 51.2507 34.782 51.0316 38.0046 50.6003C36.9951 52.1688 36.5133 53.9525 36.252 55.8029L36.2315 55.9207ZM28.1857 46.1308C14.2979 46.1308 6.40585 42.4916 5.12468 41.0051V36.392C12.4254 39.5344 20.3359 41.0054 28.278 40.6976C36.2849 40.9649 44.2512 39.4487 51.6004 36.2588L51.2519 38.1348C47.405 39.4288 43.9789 41.7381 41.3357 44.8186C37.4819 45.6643 33.0798 46.1308 28.5701 46.1308H28.1755H28.1857ZM58.4726 76.8846C53.8379 76.8846 49.393 75.0431 46.1158 71.7653C42.8386 68.4875 40.9974 64.0417 40.9974 59.4062C40.9974 54.7706 42.8386 50.3249 46.1158 47.0471C49.393 43.7692 53.8379 41.9277 58.4726 41.9277C63.1073 41.9277 67.5522 43.7692 70.8294 47.0471C74.1066 50.3249 75.9478 54.7706 75.9478 59.4062C75.9478 64.0417 74.1066 68.4875 70.8294 71.7653C67.5522 75.0431 63.1073 76.8846 58.4726 76.8846ZM76.8702 41.0051C75.9734 41.8611 74.8972 42.5428 73.7083 42.9836C72.2324 41.733 70.6335 40.6258 68.9013 39.734C71.731 39.0008 74.4694 37.9521 77.0649 36.6073L76.8702 41.0051ZM76.8702 30.7538C75.6403 32.3428 68.6195 35.5719 56.3715 35.8795V30.7538H56.4279C63.5818 30.7646 70.6582 29.2715 77.1982 26.3714L76.8702 30.7538ZM76.8702 20.5026C75.589 22.194 67.697 25.6282 53.8091 25.6282H52.6305C46.0205 22.2371 38.6944 20.4795 31.2657 20.5026H30.7481V15.8895C38.0488 19.0318 45.9593 20.5028 53.9014 20.195C61.9083 20.4623 69.8746 18.9462 77.2238 15.7562L76.8702 20.5026ZM53.8091 15.3769C40.9974 15.3769 30.7481 13.0704 30.7481 10.2513C30.7481 7.43218 40.9974 5.12564 53.8091 5.12564C66.6208 5.12564 76.8702 7.43218 76.8702 10.2513C76.8702 13.0704 66.6208 15.3769 53.8091 15.3769Z" fill="#545454"/>
</svg>
