<svg width="232" height="200" viewBox="0 0 232 200" fill="none" xmlns="http://www.w3.org/2000/svg">
<path d="M166 0C145.91 0 128.08 7.93 116 21.56C103.92 7.93 86.09 0 66 0C48.5022 0.021171 31.7272 6.98152 19.3543 19.3543C6.98152 31.7272 0.021171 48.5022 0 66C0 138.34 105.81 196.14 110.31 198.57C112.059 199.512 114.014 200.005 116 200.005C117.986 200.005 119.941 199.512 121.69 198.57C126.19 196.14 232 138.34 232 66C231.979 48.5022 225.018 31.7272 212.646 19.3543C200.273 6.98152 183.498 0.021171 166 0ZM160.51 142.36C146.583 154.178 131.694 164.815 116 174.16C100.306 164.815 85.4173 154.178 71.49 142.36C49.82 123.77 24 95.42 24 66C24 54.8609 28.425 44.178 36.3015 36.3015C44.178 28.425 54.8609 24 66 24C83.8 24 98.7 33.4 104.89 48.54C105.791 50.7471 107.329 52.6358 109.308 53.9653C111.286 55.2948 113.616 56.0048 116 56.0048C118.384 56.0048 120.714 55.2948 122.692 53.9653C124.671 52.6358 126.209 50.7471 127.11 48.54C133.3 33.4 148.2 24 166 24C177.139 24 187.822 28.425 195.698 36.3015C203.575 44.178 208 54.8609 208 66C208 95.42 182.18 123.77 160.51 142.36Z" fill="#545454"/>
</svg>
