<?xml version="1.0" encoding="utf-8"?>
<!-- Generator: Adobe Illustrator 24.1.1, SVG Export Plug-In . SVG Version: 6.00 Build 0)  -->
<svg version="1.1" id="레이어_1" xmlns="http://www.w3.org/2000/svg" xmlns:xlink="http://www.w3.org/1999/xlink" x="0px"
	 y="0px" viewBox="0 0 1200 1200" style="enable-background:new 0 0 1200 1200;" xml:space="preserve">
<style type="text/css">
	.st0{fill:#EAEAEA;}
	.st1{opacity:0.5;}
	.st2{fill:#FAFAFA;}
	.st3{fill:none;stroke:#C9C9C9;stroke-width:2.418;}
	.st4{fill:none;stroke:url(#SVGID_1_);stroke-width:2.418;}
	.st5{fill:none;stroke:url(#SVGID_2_);stroke-width:2.418;}
	.st6{fill:none;stroke:url(#SVGID_3_);stroke-width:2.418;}
	.st7{fill:none;stroke:url(#SVGID_4_);stroke-width:2.418;}
	.st8{fill:#FFFFFF;}
	.st9{clip-path:url(#SVGID_6_);}
	.st10{fill-rule:evenodd;clip-rule:evenodd;fill:#666666;}
</style>
<path class="st0" d="M3,0h1194c1.7,0,3,1.3,3,3v1194c0,1.7-1.3,3-3,3H3c-1.7,0-3-1.3-3-3V3C0,1.3,1.3,0,3,0z"/>
<g class="st1">
	<g class="st1">
		<path class="st2" d="M598.8,1736.8c-629.8,0-1140.4-510.6-1140.4-1140.4C-541.6-33.4-31-544,598.8-544
			c629.8,0,1140.4,510.6,1140.4,1140.4C1739.2,1226.3,1228.6,1736.8,598.8,1736.8z"/>
		<path class="st3" d="M598.8,1736.8c-629.8,0-1140.4-510.6-1140.4-1140.4C-541.6-33.4-31-544,598.8-544
			c629.8,0,1140.4,510.6,1140.4,1140.4C1739.2,1226.3,1228.6,1736.8,598.8,1736.8z"/>
	</g>
	
		<linearGradient id="SVGID_1_" gradientUnits="userSpaceOnUse" x1="3179.2903" y1="-218.9983" x2="-1449.5212" y2="-219.0316" gradientTransform="matrix(0.7071 -0.7071 0.7071 0.7071 147.6023 1374.0134)">
		<stop  offset="0" style="stop-color:#C9C9C9;stop-opacity:0"/>
		<stop  offset="0.208" style="stop-color:#C9C9C9"/>
		<stop  offset="0.792" style="stop-color:#C9C9C9"/>
		<stop  offset="1" style="stop-color:#C9C9C9;stop-opacity:0"/>
	</linearGradient>
	<path class="st4" d="M-1026.6,2238.4L2240.8-1029"/>
	
		<linearGradient id="SVGID_2_" gradientUnits="userSpaceOnUse" x1="2233.7034" y1="613.6639" x2="-1041.7424" y2="613.6473" gradientTransform="matrix(1 0 0 -1 0 1200)">
		<stop  offset="0" style="stop-color:#C9C9C9;stop-opacity:0"/>
		<stop  offset="0.208" style="stop-color:#C9C9C9"/>
		<stop  offset="0.792" style="stop-color:#C9C9C9"/>
		<stop  offset="1" style="stop-color:#C9C9C9;stop-opacity:0"/>
	</linearGradient>
	<path class="st5" d="M-1036.1,586.3h3269.8"/>
	
		<linearGradient id="SVGID_3_" gradientUnits="userSpaceOnUse" x1="588.7139" y1="2238.4531" x2="588.7309" y2="-1036.9922" gradientTransform="matrix(1 0 0 -1 0 1200)">
		<stop  offset="0" style="stop-color:#C9C9C9;stop-opacity:0"/>
		<stop  offset="0.208" style="stop-color:#C9C9C9"/>
		<stop  offset="0.792" style="stop-color:#C9C9C9"/>
		<stop  offset="1" style="stop-color:#C9C9C9;stop-opacity:0"/>
	</linearGradient>
	<path class="st6" d="M588.7,2231.3v-3269.8"/>
	
		<linearGradient id="SVGID_4_" gradientUnits="userSpaceOnUse" x1="-1040.8413" y1="2228.9294" x2="2232.2419" y2="-1044.1125" gradientTransform="matrix(1 0 0 -1 0 1200)">
		<stop  offset="0" style="stop-color:#C9C9C9;stop-opacity:0"/>
		<stop  offset="0.208" style="stop-color:#C9C9C9"/>
		<stop  offset="0.792" style="stop-color:#C9C9C9"/>
		<stop  offset="1" style="stop-color:#C9C9C9;stop-opacity:0"/>
	</linearGradient>
	<path class="st7" d="M2226.6,2238.5l-3267.4-3267.4"/>
	<path class="st8" d="M598.8,1070.8c-262,0-474.3-212.4-474.3-474.3c0-262,212.4-474.3,474.3-474.3c262,0,474.3,212.4,474.3,474.3
		C1073.1,858.4,860.8,1070.8,598.8,1070.8z"/>
	<g>
		<defs>
			<rect id="SVGID_5_" x="437.3" y="435" width="322.9" height="322.9"/>
		</defs>
		<clipPath id="SVGID_6_">
			<use xlink:href="#SVGID_5_"  style="overflow:visible;"/>
		</clipPath>
		<g class="st9">
			<path class="st10" d="M730,485.4H467.6v135l29.7-29.7l4.4-4.4h75.7l0.6-0.6l70.6-70.6h21.4L730,575L730,485.4L730,485.4z
				 M598.8,607.7l30.9,30.9l10.7,10.7L619,670.7L608.3,660l-43.4-43.4h-50.6l-46,46l-0.6,0.6v24c0,11.1,9,20.2,20.2,20.2h0h222
				c11.1,0,20.2-9,20.2-20.2v0v-69.4l-70.6-70.6l-59.9,59.9L598.8,607.7L598.8,607.7z M437.3,653.2v34.1c0,27.9,22.6,50.5,50.5,50.5
				c0,0,0,0,0,0h222c27.9,0,50.5-22.6,50.5-50.4c0,0,0,0,0,0v-59.3l11.3-11.3l-10.7-10.7l-0.6-0.6V455.1H437.3v195.6l-1.2,1.2
				L437.3,653.2L437.3,653.2z"/>
		</g>
	</g>
	<path class="st3" d="M598.8,1070.8c-262,0-474.3-212.4-474.3-474.3c0-262,212.4-474.3,474.3-474.3c262,0,474.3,212.4,474.3,474.3
		C1073.1,858.4,860.8,1070.8,598.8,1070.8z"/>
</g>
</svg>
