<svg width="60" height="60" viewBox="0 0 60 60" fill="none" xmlns="http://www.w3.org/2000/svg">
<path d="M49 52.5L33.25 36.75C32 37.75 30.5625 38.5417 28.9375 39.125C27.3125 39.7083 25.5833 40 23.75 40C19.2083 40 15.365 38.4267 12.22 35.28C9.075 32.1333 7.50167 28.29 7.5 23.75C7.5 19.2083 9.07333 15.365 12.22 12.22C15.3667 9.075 19.21 7.50167 23.75 7.5C28.2917 7.5 32.1358 9.07333 35.2825 12.22C38.4292 15.3667 40.0017 19.21 40 23.75C40 25.5833 39.7083 27.3125 39.125 28.9375C38.5417 30.5625 37.75 32 36.75 33.25L52.5 49L49 52.5ZM23.75 35C26.875 35 29.5317 33.9067 31.72 31.72C33.9083 29.5333 35.0017 26.8767 35 23.75C35 20.625 33.9067 17.9692 31.72 15.7825C29.5333 13.5958 26.8767 12.5017 23.75 12.5C20.625 12.5 17.9692 13.5942 15.7825 15.7825C13.5958 17.9708 12.5017 20.6267 12.5 23.75C12.5 26.875 13.5942 29.5317 15.7825 31.72C17.9708 33.9083 20.6267 35.0017 23.75 35Z" fill="black"/>
</svg>
