<?xml version="1.0" encoding="utf-8"?>
<!-- Generator: Adobe Illustrator 24.1.1, SVG Export Plug-In . SVG Version: 6.00 Build 0)  -->
<svg version="1.1" id="레이어_1" xmlns="http://www.w3.org/2000/svg" xmlns:xlink="http://www.w3.org/1999/xlink" x="0px"
	 y="0px" viewBox="0 0 60 60" style="enable-background:new 0 0 60 60;" xml:space="preserve">
<style type="text/css">
	.st0{fill:#FFFACD;}
	.st1{fill:#023E7D;}
</style>
<g>
	<path class="st0" d="M33.3,37.5c-1.3,0.9-2.6,1.7-4.1,2.2c-1.5,0.6-3.3,0.8-5.4,0.8c-4.6,0-8.6-1.6-11.9-4.8
		c-3.2-3.2-4.8-7.2-4.8-11.9c0-4.6,1.6-8.6,4.8-11.9c3.2-3.2,7.2-4.8,11.9-4.8c4.6,0,8.6,1.6,11.9,4.8c3.2,3.2,4.8,7.2,4.8,11.9
		c0,1.9-0.3,3.8-0.9,5.4c-0.6,1.6-1.3,3-2.2,4.1L53.2,49L49,53.2L33.3,37.5z M23.8,12.9c-3,0-5.6,1.1-7.6,3.2
		C14,18.2,13,20.7,13,23.7c0,3,1.1,5.6,3.2,7.6c2.1,2.1,4.6,3.2,7.6,3.2c3,0,5.6-1.1,7.6-3.2c2.1-2.1,3.2-4.6,3.2-7.6
		c0-3-1.1-5.6-3.2-7.6C29.3,13.9,26.8,12.9,23.8,12.9z"/>
	<path class="st1" d="M23.8,7.6c4.5,0,8.4,1.6,11.5,4.7s4.7,7,4.7,11.5c0,1.8-0.3,3.6-0.9,5.2c-0.6,1.6-1.4,3.1-2.4,4.3L52.5,49
		L49,52.5L33.3,36.8c-1.3,1-2.7,1.8-4.3,2.4c-1.6,0.6-3.4,0.8-5.2,0.8c-4.5,0-8.4-1.6-11.5-4.7s-4.7-7-4.7-11.5s1.6-8.4,4.7-11.5
		S19.3,7.6,23.8,7.6 M23.8,35c3.1,0,5.8-1.1,8-3.3c2.2-2.2,3.3-4.8,3.3-8c0-3.1-1.1-5.8-3.3-8c-2.2-2.2-4.8-3.3-8-3.3
		c-3.1,0-5.8,1.1-8,3.3c-2.2,2.2-3.3,4.8-3.3,8c0,3.1,1.1,5.8,3.3,8C18,33.9,20.6,35,23.8,35 M23.8,6.6c-4.8,0-8.9,1.7-12.2,5
		c-3.3,3.3-5,7.4-5,12.2s1.7,8.9,5,12.2c3.3,3.3,7.4,5,12.2,5c2.2,0,4-0.3,5.6-0.9c1.4-0.5,2.6-1.2,3.8-2l15.1,15.1l0.7,0.7l0.7-0.7
		l3.5-3.5l0.7-0.7l-0.7-0.7L38,33.2c0.8-1.1,1.5-2.4,2-3.9c0.6-1.7,1-3.6,1-5.6c0-4.8-1.7-8.9-5-12.2C32.7,8.3,28.6,6.6,23.8,6.6
		L23.8,6.6z M23.8,34c-2.9,0-5.3-1-7.3-3c-2-2-3-4.4-3-7.3c0-2.9,1-5.3,3-7.3c2-2,4.4-3,7.3-3c2.9,0,5.3,1,7.3,3c2,2,3,4.4,3,7.3
		c0,2.9-1,5.3-3,7.3C29.1,33,26.6,34,23.8,34L23.8,34z"/>
</g>
</svg>
