<?xml version="1.0" encoding="utf-8"?>
<!-- Generator: Adobe Illustrator 24.1.1, SVG Export Plug-In . SVG Version: 6.00 Build 0)  -->
<svg version="1.1" id="레이어_1" xmlns="http://www.w3.org/2000/svg" xmlns:xlink="http://www.w3.org/1999/xlink" x="0px"
	 y="0px" viewBox="0 0 60 60" style="enable-background:new 0 0 60 60;" xml:space="preserve">
<style type="text/css">
	.st0{fill:#FFFFFF;}
</style>
<path class="st0" d="M49,52.5L33.3,36.8c-1.3,1-2.7,1.8-4.3,2.4S25.6,40,23.8,40c-4.5,0-8.4-1.6-11.5-4.7c-3.1-3.1-4.7-7-4.7-11.5
	c0-4.5,1.6-8.4,4.7-11.5c3.1-3.1,7-4.7,11.5-4.7c4.5,0,8.4,1.6,11.5,4.7c3.1,3.1,4.7,7,4.7,11.5c0,1.8-0.3,3.6-0.9,5.2
	s-1.4,3.1-2.4,4.3L52.5,49L49,52.5z M23.8,35c3.1,0,5.8-1.1,8-3.3s3.3-4.8,3.3-8c0-3.1-1.1-5.8-3.3-8s-4.8-3.3-8-3.3
	c-3.1,0-5.8,1.1-8,3.3s-3.3,4.8-3.3,8c0,3.1,1.1,5.8,3.3,8S20.6,35,23.8,35z"/>
</svg>
