<?xml version="1.0" encoding="utf-8"?>
<!-- Generator: Adobe Illustrator 24.1.1, SVG Export Plug-In . SVG Version: 6.00 Build 0)  -->
<svg version="1.1" id="레이어_1" xmlns="http://www.w3.org/2000/svg" xmlns:xlink="http://www.w3.org/1999/xlink" x="0px"
	 y="0px" viewBox="0 0 220 189" style="enable-background:new 0 0 220 189;" xml:space="preserve">
<style type="text/css">
	.st0{fill:#545454;stroke:#545454;stroke-width:5;stroke-miterlimit:10;}
</style>
<g>
	<path class="st0" d="M155.3,9.3c-19,0-35.6,8.6-45.3,23c-9.7-14.4-26.3-23-45.3-23c-14.4,0-28.2,5.8-38.4,15.9
		C16,35.4,10.3,49.3,10.3,63.7c0,26.5,16.5,54,49,81.9c14.9,12.7,31,23.9,48.1,33.5c0.8,0.4,1.7,0.6,2.6,0.6s1.8-0.2,2.6-0.6
		c17.1-9.6,33.2-20.8,48.1-33.5c32.5-27.8,49-55.4,49-81.9c0-14.4-5.8-28.2-15.9-38.4C183.6,15,169.7,9.3,155.3,9.3z M110,168
		c-14.9-8.6-88.8-53.8-88.8-104.3c0-11.5,4.6-22.6,12.8-30.8s19.2-12.7,30.8-12.8c18.4,0,33.8,9.8,40.3,25.6c0.4,1,1.1,1.9,2,2.5
		c0.9,0.6,1.9,0.9,3,0.9s2.1-0.3,3-0.9c0.9-0.6,1.6-1.5,2-2.5c6.5-15.8,21.9-25.6,40.3-25.6c11.5,0,22.6,4.6,30.8,12.8
		c8.2,8.2,12.7,19.2,12.8,30.8C198.8,114.2,124.9,159.4,110,168z"/>
</g>
</svg>
